HIERARCHY
ROOT Hips
{
	OFFSET -3.958830 18.904000 13.208200
	CHANNELS 6 Xposition Yposition Zposition Zrotation Yrotation Xrotation 
	JOINT LHipJoint
	{
		OFFSET 0.000000 0.000000 0.000000
		CHANNELS 3 Zrotation Yrotation Xrotation
		JOINT LeftUpLeg
		{
			OFFSET 1.800000 -1.400000 0.085000
			CHANNELS 3 Zrotation Yrotation Xrotation
			JOINT LeftLeg
			{
				OFFSET 2.215000 -6.000000 0.000000
				CHANNELS 3 Zrotation Yrotation Xrotation
				JOINT LeftFoot
				{
					OFFSET 2.500000 -6.900000 0.000000
					CHANNELS 3 Zrotation Yrotation Xrotation
					JOINT LeftToeBase
					{
						OFFSET 0.200000 -0.500000 1.950000
						CHANNELS 3 Zrotation Yrotation Xrotation
						End Site
						{
							OFFSET 0.000000 0.000000 0.000000
						}
					}
				}
			}
		}
	}
	JOINT RHipJoint
	{
		OFFSET 0.000000 0.000000 0.000000
		CHANNELS 3 Zrotation Yrotation Xrotation
		JOINT RightUpLeg
		{
			OFFSET -1.800000 -1.400000 0.085000
			CHANNELS 3 Zrotation Yrotation Xrotation
			JOINT RightLeg
			{
				OFFSET -2.215000 -6.000000 0.000000
				CHANNELS 3 Zrotation Yrotation Xrotation
				JOINT RightFoot
				{
					OFFSET -2.500000 -6.900000 0.000000
					CHANNELS 3 Zrotation Yrotation Xrotation
					JOINT RightToeBase
					{
						OFFSET -0.200000 -0.500000 1.950000
						CHANNELS 3 Zrotation Yrotation Xrotation
						End Site
						{
							OFFSET 0.000000 0.000000 0.000000
						}
					}
				}
			}
		}
	}
	JOINT LowerBack
	{
		OFFSET 0.000000 0.000000 0.000000
		CHANNELS 3 Zrotation Yrotation Xrotation
		JOINT Spine
		{
			OFFSET -0.087000 1.940000 -0.288900
			CHANNELS 3 Zrotation Yrotation Xrotation
			JOINT Spine1
			{
				OFFSET 0.000000 1.950000 0.060000
				CHANNELS 3 Zrotation Yrotation Xrotation
				JOINT Neck
				{
					OFFSET 0.000000 0.000000 0.000000
					CHANNELS 3 Zrotation Yrotation Xrotation
					JOINT Neck1
					{
						OFFSET 0.000000 1.600000 0.340000
						CHANNELS 3 Zrotation Yrotation Xrotation
						JOINT Head
						{
							OFFSET 0.000000 1.667000 -0.240000
							CHANNELS 3 Zrotation Yrotation Xrotation
							End Site
							{
								OFFSET 0.000000 0.000000 0.000000
							}
						}
					}
				}
				JOINT LeftShoulder
				{
					OFFSET 0.000000 0.000000 0.000000
					CHANNELS 3 Zrotation Yrotation Xrotation
					JOINT LeftArm
					{
						OFFSET 2.700000 1.550000 -0.730000
						CHANNELS 3 Zrotation Yrotation Xrotation
						JOINT LeftForeArm
						{
							OFFSET 5.450000 0.000000 0.000000
							CHANNELS 3 Zrotation Yrotation Xrotation
							JOINT LeftHand
							{
								OFFSET 3.450000 0.000000 0.000000
								CHANNELS 3 Zrotation Yrotation Xrotation
								JOINT LeftHandIndex1
								{
									OFFSET 0.750000 0.000000 0.000000
									CHANNELS 3 Zrotation Yrotation Xrotation
									End Site
									{
										OFFSET 0.000000 0.000000 0.000000
									}
								}
							}
						}
					}
				}
				JOINT RightShoulder
				{
					OFFSET 0.000000 0.000000 0.000000
					CHANNELS 3 Zrotation Yrotation Xrotation
					JOINT RightArm
					{
						OFFSET -2.700000 1.550000 -0.730000
						CHANNELS 3 Zrotation Yrotation Xrotation
						JOINT RightForeArm
						{
							OFFSET -5.450000 0.000000 0.000000
							CHANNELS 3 Zrotation Yrotation Xrotation
							JOINT RightHand
							{
								OFFSET -3.450000 0.000000 0.000000
								CHANNELS 3 Zrotation Yrotation Xrotation
								JOINT RightHandIndex1
								{
									OFFSET -0.750000 0.000000 0.000000
									CHANNELS 3 Zrotation Yrotation Xrotation
									End Site
									{
										OFFSET 0.000000 0.000000 0.000000
									}
								}
							}
						}
					}
				}
			}
		}
	}
}
MOTION
Frames: 7
Frame Time: 0.016667
0.020740 17.733190 -1.725470 -3.735569 6.613988 1.565922 -15.143680 13.588990 2.889765 8.932336 -2.570744 -16.433752 -7.780246 7.399092 20.392290 -0.779821 5.179884 2.790490 -0.267330 -0.472030 -0.310270 18.224014 -10.292582 3.402042 -3.286681 4.832275 -33.678358 3.499778 -4.832043 22.337796 0.180419 -2.717248 3.487298 -0.137390 0.732740 0.038370 -3.646509 -2.664169 -7.814758 7.645975 -4.518384 12.778788 -3.106231 -3.275729 6.870839 0.924180 -1.623293 -10.902439 -7.043582 4.487394 46.546070 -0.721320 1.938260 -2.334780 -13.714269 -16.785858 5.330077 -49.142651 -15.827633 -0.254808 -0.346094 -23.255245 -1.932959 -4.105278 2.460367 0.550410 0.342510 -0.304680 0.009330 12.155475 16.974437 6.182970 63.370473 12.361646 -4.250559 3.692725 17.634684 -0.803452 2.051715 -0.879697 -0.561920 0.603040 0.580170 -0.137630 
-0.014530 17.761560 -1.711500 -3.867189 6.996876 1.823286 -15.165943 13.619712 2.874806 8.902838 -2.560453 -16.677713 -7.244533 7.164565 20.014779 -0.799796 5.076521 2.842821 -0.282330 -0.488450 -0.317950 18.199644 -10.291520 3.383543 -3.870214 4.695432 -33.553681 4.080027 -4.989596 22.116215 0.190305 -2.743803 3.489396 -0.143760 0.759400 0.028260 -3.588404 -2.726337 -7.785573 7.231356 -4.334869 12.483224 -2.218623 -3.238102 6.776851 0.667370 -1.777150 -10.783503 -7.370061 4.354198 46.014734 -0.643460 1.650970 -2.304130 -13.231588 -16.411464 5.214552 -50.421279 -16.253073 -0.016608 -1.252723 -23.632683 -1.823991 -4.118176 2.445459 0.541510 0.353620 -0.319580 0.011290 12.252485 16.766793 6.099080 62.849800 12.128140 -3.991091 3.819677 16.444723 -0.701388 2.064332 -0.859138 -0.574190 0.628140 0.587950 -0.131100 
-0.080800 17.817680 -1.686740 -4.209396 7.797550 2.360865 -15.219584 13.696820 2.854856 8.820325 -2.488236 -16.961977 -6.225159 6.608489 18.657226 -0.875607 4.816895 2.948335 -0.316940 -0.527280 -0.356010 18.138186 -10.277943 3.338555 -5.051388 4.382439 -32.920995 5.574086 -5.334487 21.289723 0.211425 -2.803670 3.476468 -0.146630 0.788830 0.004230 -3.440971 -2.904152 -7.736995 6.243695 -4.056881 11.844474 -0.105862 -3.298301 6.631542 0.145940 -2.078154 -10.768839 -8.029593 4.362794 45.428630 -0.311240 1.280110 -2.072340 -12.299725 -15.981897 5.229594 -53.458368 -16.648011 0.197936 -2.635132 -24.454244 -1.750868 -4.120492 2.443952 0.547410 0.363420 -0.351930 0.005240 12.538801 16.666987 6.057916 61.649007 11.568586 -3.579882 3.620024 13.952642 -0.529636 2.078086 -0.831431 -0.611890 0.652680 0.616820 -0.134890 
-0.159010 17.886070 -1.660270 -4.509522 8.410332 3.236614 -15.284990 13.717989 2.850539 8.516370 -2.428845 -17.194754 -5.536254 6.034958 16.638658 -0.933999 4.522867 3.077238 -0.310950 -0.539440 -0.350800 18.073852 -10.236471 3.308699 -6.464772 4.085118 -32.392561 7.405667 -5.670439 20.044932 0.208538 -2.855836 3.462733 -0.144380 0.798000 -0.000000 -3.264940 -3.032682 -7.686581 4.976673 -3.543567 10.909894 2.284984 -3.179011 6.490632 -0.338058 -2.357798 -10.688184 -8.604391 4.052965 44.602204 -0.346570 0.818900 -2.276320 -10.958298 -15.193933 5.210192 -57.584308 -17.073944 0.395172 -4.587510 -25.466556 -1.623449 -4.104403 2.470951 0.561880 0.361710 -0.359920 0.017460 12.375244 16.328252 5.940704 60.956328 11.013425 -3.166162 3.232339 11.070404 -0.362370 2.100942 -0.825176 -0.629160 0.665860 0.613030 -0.141670 
-0.245800 17.954240 -1.635150 -4.983157 8.803488 4.230522 -15.342194 13.682533 2.863407 8.436913 -2.399014 -17.456999 -5.324233 5.584711 14.407737 -0.947198 4.269305 3.179978 -0.297550 -0.533970 -0.345580 18.028725 -10.173099 3.280015 -7.596985 3.889190 -31.922170 8.981770 -5.948859 19.062778 0.194388 -2.929186 3.430220 -0.148050 0.793830 0.010030 -3.118252 -3.112747 -7.629294 3.921700 -2.981015 9.729163 4.581069 -2.992269 6.379180 -0.818043 -2.674265 -10.556946 -9.309706 3.773620 43.930478 -0.223430 0.304870 -2.306920 -9.305886 -13.942186 5.147408 -62.128465 -17.494821 0.681949 -7.489370 -26.402634 -1.269459 -4.083228 2.542287 0.557530 0.354050 -0.357060 0.027420 11.868169 15.522425 5.729629 60.715331 10.241441 -3.033500 3.191256 8.665654 -0.220560 2.140705 -0.834860 -0.614490 0.651140 0.600520 -0.133900 
-0.334760 18.022500 -1.612970 -5.239461 9.053320 5.188026 -15.402758 13.661616 2.907904 8.006350 -2.414801 -17.688849 -5.187850 5.151005 12.157412 -0.972892 4.084171 3.283502 -0.342330 -0.594240 -0.411440 17.977793 -10.102774 3.230802 -8.708068 3.602938 -31.156095 10.300834 -6.116579 17.814667 0.205991 -2.986165 3.426414 -0.173790 0.854350 0.001400 -2.954773 -3.263351 -7.585916 2.687100 -2.434876 8.776952 6.845922 -2.763365 6.191496 -1.465028 -3.386594 -10.653159 -10.856062 4.016643 43.115110 0.817070 -0.632170 -1.684580 -8.139925 -12.968074 5.204957 -66.544459 -17.402860 0.593154 -9.593661 -27.109872 -1.121227 -4.080053 2.577204 0.564030 0.364880 -0.390620 0.046410 12.190017 15.201790 5.872893 59.854888 8.657197 -3.650605 3.010898 7.524769 -0.154639 2.146325 -0.807635 -0.645600 0.680510 0.632600 -0.114030 
-0.428660 18.068960 -1.594780 -5.450923 9.483536 6.651427 -15.460807 13.557600 2.966715 7.542058 -2.645015 -18.630352 -5.404268 4.851448 10.371174 -1.048128 4.033040 3.330461 -0.444590 -0.741530 -0.508510 17.954115 -9.980743 3.183467 -9.633851 3.433761 -30.819601 11.469269 -6.273232 16.780691 0.258996 -3.076009 3.392416 -0.208030 0.958030 -0.003770 -2.827977 -3.380212 -7.487036 1.454691 -1.984166 7.306270 8.861737 -2.602393 6.093665 -2.217158 -3.963585 -10.291122 -11.699539 4.245362 40.725192 2.044310 -1.572970 -0.724930 -6.537541 -11.007997 5.083156 -71.177182 -17.110481 0.458931 -11.725249 -28.228114 -0.975163 -4.136335 2.612876 0.566030 0.408870 -0.475160 0.032330 12.200242 13.706498 5.444330 59.464557 7.556007 -4.032022 3.116070 6.125831 -0.092491 2.142971 -0.769565 -0.726200 0.715970 0.725240 -0.112700 
